<svg width="48" height="48" viewBox="0 0 48 48" fill="none"
    xmlns="http://www.w3.org/2000/svg">
    <path d="M24 9.6C17.6 9.6 13.6 12.8 12 19.2C14.4 16 17.2 14.8 20.4 15.6C22.3347 16.087 23.7747 17.5399 25.0107 18.7879C27.094 20.894 29.4693 23.2 36 23.2C42.4 23.2 46.4 20 48 13.6C45.6 16.8 42.8 18 39.6 17.2C37.6653 16.713 36.2253 15.2601 34.9893 14.0121C32.906 11.906 30.5307 9.6 24 9.6ZM12 23.2C5.6 23.2 1.6 26.4 0 32.8C2.4 29.6 5.2 28.4 8.4 29.2C10.3347 29.687 11.7747 31.1399 13.0107 32.3879C15.094 34.494 17.4693 36.8 24 36.8C30.4 36.8 34.4 33.6 36 27.2C33.6 30.4 30.8 31.6 27.6 30.8C25.6653 30.313 24.2253 28.8601 22.9893 27.6121C20.906 25.506 18.5307 23.2 12 23.2Z" fill="#38BDF8" />
</svg>